<svg width="101" height="101" viewBox="0 0 101 101" fill="none" xmlns="http://www.w3.org/2000/svg">
<g clip-path="url(#clip0_2503_1867)">
<path d="M12.9961 33.8332C12.9961 36.1248 14.8711 37.9998 17.1628 37.9998C19.4544 37.9998 21.3294 36.1248 21.3294 33.8332V25.4998H29.6628C31.9544 25.4998 33.8294 23.6248 33.8294 21.3332C33.8294 19.0415 31.9544 17.1665 29.6628 17.1665H21.3294V8.83317C21.3294 6.5415 19.4544 4.6665 17.1628 4.6665C14.8711 4.6665 12.9961 6.5415 12.9961 8.83317V17.1665H4.66276C2.37109 17.1665 0.496094 19.0415 0.496094 21.3332C0.496094 23.6248 2.37109 25.4998 4.66276 25.4998H12.9961V33.8332Z" fill="#B6B6B6"/>
<path d="M54.6641 71.3335C61.5676 71.3335 67.1641 65.7371 67.1641 58.8335C67.1641 51.9299 61.5676 46.3335 54.6641 46.3335C47.7605 46.3335 42.1641 51.9299 42.1641 58.8335C42.1641 65.7371 47.7605 71.3335 54.6641 71.3335Z" fill="#B6B6B6"/>
<path d="M87.9961 25.4998H74.7878L69.6211 19.8748C68.8446 19.0223 67.8988 18.3411 66.8442 17.8748C65.7896 17.4084 64.6492 17.1672 63.4961 17.1665H36.8294C37.5378 18.4165 37.9961 19.7915 37.9961 21.3332C37.9961 25.9165 34.2461 29.6665 29.6628 29.6665H25.4961V33.8332C25.4961 38.4165 21.7461 42.1665 17.1628 42.1665C15.6211 42.1665 14.2461 41.7082 12.9961 40.9998V83.8332C12.9961 88.4165 16.7461 92.1665 21.3294 92.1665H87.9961C92.5794 92.1665 96.3294 88.4165 96.3294 83.8332V33.8332C96.3294 29.2498 92.5794 25.4998 87.9961 25.4998ZM54.6628 79.6665C43.1628 79.6665 33.8294 70.3332 33.8294 58.8332C33.8294 47.3332 43.1628 37.9998 54.6628 37.9998C66.1628 37.9998 75.4961 47.3332 75.4961 58.8332C75.4961 70.3332 66.1628 79.6665 54.6628 79.6665Z" fill="#B6B6B6"/>
</g>
<defs>
<clipPath id="clip0_2503_1867">
<rect width="100" height="100" fill="white" transform="translate(0.496094 0.5)"/>
</clipPath>
</defs>
</svg>
