<svg width="152" height="39" viewBox="0 0 152 39" fill="none" xmlns="http://www.w3.org/2000/svg">
<path d="M18.1981 2.5543C28.264 2.5543 36.4457 10.6864 36.4457 20.7524C36.4457 30.8183 28.264 38.9504 18.1981 38.9504C8.1321 38.9504 0 30.8183 0 20.7524C0 10.6864 8.1321 2.5543 18.1981 2.5543ZM18.1981 30.5704C23.6029 30.5704 28.0161 26.1572 28.0161 20.7524C28.0161 15.3475 23.6029 10.9343 18.1981 10.9343C12.7932 10.9343 8.38003 15.3475 8.38003 20.7524C8.38003 26.1572 12.7932 30.5704 18.1981 30.5704ZM58.8264 16.8846V2.60388H67.2064V39H58.8264V25.2647H48.3142V39H39.9342V2.60388H48.3142V16.8846H58.8264ZM77.4901 30.372C79.9198 30.372 81.8537 32.3059 81.8537 34.686C81.8537 37.0661 79.9198 39 77.4901 39C75.11 39 73.1761 37.0661 73.1761 34.686C73.1761 32.3059 75.11 30.372 77.4901 30.372ZM81.7049 26.4547H73.3249V1.90968H81.7049V26.4547ZM102.947 38.9504C98.2364 38.9504 93.6249 37.2149 90.0547 33.6447C86.6333 30.1241 84.749 25.6614 84.749 20.7524C84.749 15.7938 86.6333 11.2814 90.0547 7.86C97.1951 0.719617 108.699 0.719617 115.839 7.86L109.939 13.7607C106.071 9.89302 99.8232 9.94261 96.0051 13.7607C94.1704 15.6946 93.1291 18.1243 93.1291 20.7524C93.1291 23.3804 94.1704 25.7605 96.0051 27.6944C99.8232 31.5125 106.071 31.5621 109.939 27.6944L115.839 33.6447C112.269 37.2149 107.707 38.9504 102.947 38.9504ZM133.007 2.5543C143.073 2.5543 151.255 10.6864 151.255 20.7524C151.255 30.8183 143.073 38.9504 133.007 38.9504C122.941 38.9504 114.809 30.8183 114.809 20.7524C114.809 10.6864 122.941 2.5543 133.007 2.5543ZM133.007 30.5704C138.412 30.5704 142.825 26.1572 142.825 20.7524C142.825 15.3475 138.412 10.9343 133.007 10.9343C127.602 10.9343 123.189 15.3475 123.189 20.7524C123.189 26.1572 127.602 30.5704 133.007 30.5704Z" fill="#9D9D9D"/>
</svg>
