<svg width="25" height="22" viewBox="0 0 25 22" fill="none" xmlns="http://www.w3.org/2000/svg">
<path d="M6.95012 0.987793L6.95039 0.987793C7.69999 0.987564 8.44089 1.135 9.13383 1.42188C9.82658 1.70869 10.456 2.12918 10.9862 2.65932C10.9862 2.65933 10.9862 2.65934 10.9863 2.65935L11.9622 3.63532L12.4921 4.16522L13.0225 3.63576L13.9958 2.66402C15.0715 1.62505 16.5121 1.04974 18.0077 1.06199C19.5052 1.07425 20.9379 1.67458 21.9968 2.73351C23.0558 3.79245 23.6561 5.22514 23.6684 6.72264C23.6806 8.21816 23.1054 9.65866 22.0666 10.7343L12.5286 20.2739L12.528 20.2745C12.5233 20.2792 12.5178 20.2829 12.5117 20.2854L12.5117 20.2854C12.5057 20.2879 12.4991 20.2892 12.4926 20.2892C12.486 20.2892 12.4795 20.2879 12.4734 20.2854L12.186 20.9781L12.4734 20.2854C12.4673 20.2829 12.4618 20.2792 12.4572 20.2745L12.4565 20.2739L2.9141 10.7315L2.91407 10.7314C2.11578 9.93322 1.57213 8.91619 1.35188 7.80898C1.13162 6.70177 1.24465 5.55411 1.67667 4.51114C2.1087 3.46818 2.8403 2.57675 3.77898 1.94959C4.71765 1.32244 5.82122 0.987728 6.95012 0.987793Z" stroke="#353535" stroke-width="1.5"/>
</svg>
