<svg width="133" height="34" viewBox="0 0 133 34" fill="none" xmlns="http://www.w3.org/2000/svg">
<path d="M15.9086 2.1394C24.7082 2.1394 31.8606 9.24843 31.8606 18.048C31.8606 26.8476 24.7082 33.9567 15.9086 33.9567C7.10903 33.9567 0 26.8476 0 18.048C0 9.24843 7.10903 2.1394 15.9086 2.1394ZM15.9086 26.6309C20.6335 26.6309 24.4915 22.7729 24.4915 18.048C24.4915 13.3231 20.6335 9.46517 15.9086 9.46517C11.1837 9.46517 7.32577 13.3231 7.32577 18.048C7.32577 22.7729 11.1837 26.6309 15.9086 26.6309ZM51.4257 14.6669V2.18274H58.7515V34H51.4257V21.9927H42.236V34H34.9102V2.18274H42.236V14.6669H51.4257ZM67.7414 26.4575C69.8654 26.4575 71.556 28.1481 71.556 30.2287C71.556 32.3094 69.8654 34 67.7414 34C65.6607 34 63.9701 32.3094 63.9701 30.2287C63.9701 28.1481 65.6607 26.4575 67.7414 26.4575ZM71.4259 23.033H64.1002V1.57587H71.4259V23.033ZM89.9957 33.9567C85.8777 33.9567 81.8463 32.4395 78.7253 29.3184C75.7343 26.2408 74.0871 22.3395 74.0871 18.048C74.0871 13.7132 75.7343 9.7686 78.7253 6.77761C84.9674 0.535529 95.024 0.535529 101.266 6.77761L96.1077 11.936C92.7266 8.55486 87.2648 8.59821 83.927 11.936C82.3232 13.6266 81.4129 15.7506 81.4129 18.048C81.4129 20.3455 82.3232 22.4261 83.927 24.1167C87.2648 27.4545 92.7266 27.4978 96.1077 24.1167L101.266 29.3184C98.1451 32.4395 94.1571 33.9567 89.9957 33.9567ZM116.274 2.1394C125.074 2.1394 132.226 9.24843 132.226 18.048C132.226 26.8476 125.074 33.9567 116.274 33.9567C107.474 33.9567 100.365 26.8476 100.365 18.048C100.365 9.24843 107.474 2.1394 116.274 2.1394ZM116.274 26.6309C120.999 26.6309 124.857 22.7729 124.857 18.048C124.857 13.3231 120.999 9.46517 116.274 9.46517C111.549 9.46517 107.691 13.3231 107.691 18.048C107.691 22.7729 111.549 26.6309 116.274 26.6309Z" fill="#111111"/>
</svg>
