<svg width="13" height="12" viewBox="0 0 13 12" fill="none" xmlns="http://www.w3.org/2000/svg">
<path d="M3.80038 0.499512L1.60013 0.502812C1.30836 0.502812 1.02853 0.618718 0.822219 0.825032C0.615906 1.03135 0.5 1.31117 0.5 1.60294V3.79989C0.500067 4.06952 0.599149 4.32973 0.77843 4.53112C0.957711 4.73251 1.20471 4.86104 1.47251 4.89232L1.60233 4.90002L3.80258 4.89672C4.09416 4.89643 4.3737 4.78039 4.57978 4.57411C4.78585 4.36783 4.90161 4.08817 4.90161 3.79659V1.60074C4.90181 1.33092 4.80285 1.07044 4.62354 0.868823C4.44424 0.667205 4.19709 0.538511 3.9291 0.507213L3.80038 0.499512ZM10.4011 0.499512L8.20089 0.502812C7.90912 0.502812 7.6293 0.618718 7.42298 0.825032C7.21667 1.03135 7.10076 1.31117 7.10076 1.60294V3.79989C7.10083 4.06952 7.19991 4.32973 7.37919 4.53112C7.55847 4.73251 7.80547 4.86104 8.07327 4.89232L8.20309 4.90002L10.4033 4.89672C10.6949 4.89643 10.9745 4.78039 11.1805 4.57411C11.3866 4.36783 11.5024 4.08817 11.5024 3.79659V1.60074C11.5026 1.33092 11.4036 1.07044 11.2243 0.868823C11.045 0.667205 10.7979 0.538511 10.5299 0.507213L10.4011 0.499512ZM3.80038 7.10027L1.60013 7.10357C1.30836 7.10357 1.02853 7.21948 0.822219 7.42579C0.615906 7.63211 0.5 7.91193 0.5 8.2037V10.4007C0.500067 10.6703 0.599149 10.9305 0.77843 11.1319C0.957711 11.3333 1.20471 11.4618 1.47251 11.4931L1.60233 11.5008L3.80258 11.4975C4.09416 11.4972 4.3737 11.3812 4.57978 11.1749C4.78585 10.9686 4.90161 10.6889 4.90161 10.3974V8.2015C4.90181 7.93168 4.80285 7.6712 4.62354 7.46958C4.44424 7.26797 4.19709 7.13927 3.9291 7.10797L3.80038 7.10027ZM10.4011 7.10027L8.20089 7.10357C7.90912 7.10357 7.6293 7.21948 7.42298 7.42579C7.21667 7.63211 7.10076 7.91193 7.10076 8.2037V10.4007C7.10083 10.6703 7.19991 10.9305 7.37919 11.1319C7.55847 11.3333 7.80547 11.4618 8.07327 11.4931L8.20309 11.5008L10.4033 11.4975C10.6949 11.4972 10.9745 11.3812 11.1805 11.1749C11.3866 10.9686 11.5024 10.6889 11.5024 10.3974V8.2015C11.5026 7.93168 11.4036 7.6712 11.2243 7.46958C11.045 7.26797 10.7979 7.13927 10.5299 7.10797L10.4011 7.10027Z" stroke="#111111" stroke-linecap="round" stroke-linejoin="round"/>
</svg>
