<svg width="15" height="13" viewBox="0 0 15 13" fill="none" xmlns="http://www.w3.org/2000/svg">
<path d="M0.944161 12.8701H14.0588C14.6038 12.8701 14.9435 12.2826 14.6746 11.8084L8.11371 0.484374C8.05207 0.376399 7.96298 0.286645 7.85546 0.224217C7.74794 0.161788 7.62583 0.128906 7.5015 0.128906C7.37717 0.128906 7.25506 0.161788 7.14754 0.224217C7.04002 0.286645 6.95093 0.376399 6.88929 0.484374L0.328415 11.8084C0.059469 12.2826 0.399191 12.8701 0.944161 12.8701ZM8.21279 10.7468H6.79728V9.3313H8.21279V10.7468ZM7.50504 7.91579C7.11577 7.91579 6.79728 7.5973 6.79728 7.20803V5.79253C6.79728 5.40326 7.11577 5.08477 7.50504 5.08477C7.8943 5.08477 8.21279 5.40326 8.21279 5.79253V7.20803C8.21279 7.5973 7.8943 7.91579 7.50504 7.91579Z" fill="#353535"/>
</svg>
