<svg width="20" height="20" viewBox="0 0 20 20" fill="none" xmlns="http://www.w3.org/2000/svg">
<path d="M13.2876 14.2783C11.7566 15.4682 9.82979 16.0296 7.89958 15.8481C5.96937 15.6666 4.18088 14.7558 2.89826 13.3013C1.61565 11.8468 0.935357 9.95781 0.995909 8.01906C1.05646 6.0803 1.8533 4.23752 3.22418 2.86594C4.59506 1.49436 6.4369 0.697119 8.37467 0.636536C10.3124 0.575953 12.2004 1.25659 13.6542 2.53986C15.108 3.82312 16.0183 5.61253 16.1997 7.54372C16.3812 9.47491 15.8201 11.4027 14.6307 12.9345L19.7269 18.0142L18.3743 19.3676L13.2971 14.2783H13.2876ZM8.62007 13.9733C9.37062 13.9733 10.1138 13.8254 10.8072 13.538C11.5007 13.2507 12.1307 12.8295 12.6614 12.2985C13.1922 11.7675 13.6132 11.1371 13.9004 10.4433C14.1876 9.74956 14.3354 9.00598 14.3354 8.25504C14.3354 7.50411 14.1876 6.76053 13.9004 6.06675C13.6132 5.37298 13.1922 4.7426 12.6614 4.21161C12.1307 3.68062 11.5007 3.25941 10.8072 2.97204C10.1138 2.68467 9.37062 2.53677 8.62007 2.53677C7.10426 2.53677 5.65053 3.13923 4.57869 4.21161C3.50685 5.284 2.9047 6.73846 2.9047 8.25504C2.9047 9.77163 3.50685 11.2261 4.57869 12.2985C5.65053 13.3709 7.10426 13.9733 8.62007 13.9733Z" fill="#FF7042"/>
</svg>
