<svg width="176" height="75" viewBox="0 0 176 75" fill="none" xmlns="http://www.w3.org/2000/svg">
<path d="M36.9086 2.1394C45.7082 2.1394 52.8606 9.24843 52.8606 18.048C52.8606 26.8476 45.7082 33.9567 36.9086 33.9567C28.109 33.9567 21 26.8476 21 18.048C21 9.24843 28.109 2.1394 36.9086 2.1394ZM36.9086 26.6309C41.6335 26.6309 45.4915 22.7729 45.4915 18.048C45.4915 13.3231 41.6335 9.46517 36.9086 9.46517C32.1837 9.46517 28.3258 13.3231 28.3258 18.048C28.3258 22.7729 32.1837 26.6309 36.9086 26.6309ZM72.4257 14.6669V2.18274H79.7515V34H72.4257V21.9927H63.236V34H55.9102V2.18274H63.236V14.6669H72.4257ZM88.7414 26.4575C90.8654 26.4575 92.556 28.1481 92.556 30.2287C92.556 32.3094 90.8654 34 88.7414 34C86.6607 34 84.9701 32.3094 84.9701 30.2287C84.9701 28.1481 86.6607 26.4575 88.7414 26.4575ZM92.4259 23.033H85.1002V1.57587H92.4259V23.033ZM110.996 33.9567C106.878 33.9567 102.846 32.4395 99.7253 29.3184C96.7343 26.2408 95.0871 22.3395 95.0871 18.048C95.0871 13.7132 96.7343 9.7686 99.7253 6.77761C105.967 0.535529 116.024 0.535529 122.266 6.77761L117.108 11.936C113.727 8.55486 108.265 8.59821 104.927 11.936C103.323 13.6266 102.413 15.7506 102.413 18.048C102.413 20.3455 103.323 22.4261 104.927 24.1167C108.265 27.4545 113.727 27.4978 117.108 24.1167L122.266 29.3184C119.145 32.4395 115.157 33.9567 110.996 33.9567ZM137.274 2.1394C146.074 2.1394 153.226 9.24843 153.226 18.048C153.226 26.8476 146.074 33.9567 137.274 33.9567C128.474 33.9567 121.365 26.8476 121.365 18.048C121.365 9.24843 128.474 2.1394 137.274 2.1394ZM137.274 26.6309C141.999 26.6309 145.857 22.7729 145.857 18.048C145.857 13.3231 141.999 9.46517 137.274 9.46517C132.549 9.46517 128.691 13.3231 128.691 18.048C128.691 22.7729 132.549 26.6309 137.274 26.6309Z" fill="#111111"/>
<path d="M6.96 56.984C9.968 56.984 12.128 58.456 12.128 60.712C12.128 62.808 10.32 64.2 7.696 64.424V67.24H13.376V68.44H0.592V67.24H6.24V64.424C3.632 64.216 1.808 62.808 1.808 60.712C1.808 58.456 3.984 56.984 6.96 56.984ZM3.232 60.712C3.232 62.28 4.8 63.304 6.96 63.304C9.136 63.304 10.704 62.28 10.704 60.712C10.704 59.144 9.136 58.136 6.96 58.136C4.8 58.136 3.232 59.144 3.232 60.712ZM16.2724 56.312H17.6964V59.352H25.8724V60.536H16.2724V56.312ZM14.5764 62.984V61.8H27.3604V62.984H14.5764ZM16.1284 65.256V64.136H25.7604V67.56H17.6164V68.92H26.2244V70.04H16.1604V66.472H24.3044V65.256H16.1284ZM30.0648 57.432H39.8408V58.744C39.8408 60.472 39.8408 62.408 39.2488 65.336L37.8088 65.176C38.0648 63.96 38.2088 62.904 38.2888 61.944L29.8728 62.424L29.6808 61.16L38.3688 60.84C38.4008 60.072 38.4008 59.384 38.4008 58.744V58.616H30.0648V57.432ZM28.5608 68.36V67.16H33.4248V63.576H34.8808V67.16H41.3128V68.36H28.5608ZM52.6571 56.104H54.1131V70.248H52.6571V56.104ZM43.4411 66.776V57.432H50.1451V58.648H44.8811V65.544C47.5531 65.544 49.2811 65.464 51.2651 65.08L51.4091 66.312C49.3131 66.712 47.4891 66.776 44.5931 66.776H43.4411ZM65.577 63.528H67.993V61.176H65.801C65.145 63.544 63.641 65.624 61.001 67.208L60.153 66.168C63.113 64.376 64.553 61.976 64.809 59.064H60.809V57.88H66.233C66.233 58.6 66.185 59.304 66.073 59.992H67.993V56.456H69.369V69.512H67.993V64.696H65.577V63.528ZM70.841 70.216V56.104H72.233V70.216H70.841ZM81.7374 59.72H84.3934V56.12H85.8494V64.504H84.3934V60.92H81.7374V59.72ZM74.2174 63.256C76.3614 62.488 77.7214 60.6 77.7214 58.616V58.296H74.6494V57.096H82.2014V58.296H79.1774V58.616C79.1774 60.408 80.4574 62.152 82.5534 62.872L81.8174 64.024C80.2494 63.464 79.0974 62.328 78.4894 60.936C77.8814 62.52 76.6334 63.8 74.9534 64.424L74.2174 63.256ZM76.4414 67.576C76.4414 65.912 78.2334 64.92 81.1774 64.92C84.1054 64.92 85.8974 65.912 85.8974 67.576C85.8974 69.256 84.1054 70.216 81.1774 70.216C78.2334 70.216 76.4414 69.256 76.4414 67.576ZM77.8974 67.576C77.8974 68.536 79.1134 69.096 81.1774 69.096C83.2254 69.096 84.4574 68.536 84.4574 67.576C84.4574 66.6 83.2254 66.04 81.1774 66.04C79.1134 66.04 77.8974 66.6 77.8974 67.576ZM94.5538 56.952C97.5138 56.952 99.7218 58.52 99.7218 60.888C99.7218 63.256 97.5138 64.824 94.5538 64.824C91.6258 64.824 89.4018 63.256 89.4018 60.888C89.4018 58.52 91.6258 56.952 94.5538 56.952ZM88.1858 68.376V67.16H100.97V68.376H88.1858ZM90.8098 60.888C90.8098 62.552 92.4098 63.624 94.5538 63.624C96.7298 63.624 98.3138 62.552 98.3138 60.888C98.3138 59.224 96.7298 58.136 94.5538 58.136C92.4098 58.136 90.8098 59.224 90.8098 60.888ZM102.17 67.32H107.818V64.792H103.738V60.328H111.962V58.296H103.706V57.112H113.418V61.48H105.178V63.608H113.738V64.792H109.274V67.32H114.954V68.52H102.17V67.32ZM129.922 56.12H131.394V70.232H129.922V56.12ZM119.906 66.392C121.058 66.392 122.37 66.392 123.746 66.36V64.904C122.114 64.696 121.058 63.736 121.058 62.344C121.058 60.76 122.434 59.72 124.466 59.72C126.498 59.72 127.89 60.76 127.89 62.344C127.89 63.72 126.834 64.68 125.218 64.904V66.296C126.53 66.232 127.842 66.136 129.074 65.976L129.17 67.048C126.05 67.592 122.674 67.608 120.098 67.608L119.906 66.392ZM120.194 58.968V57.8H123.746V56.136H125.218V57.8H128.754V58.968H120.194ZM122.434 62.344C122.434 63.256 123.282 63.832 124.466 63.832C125.682 63.832 126.514 63.256 126.514 62.344C126.514 61.416 125.682 60.84 124.466 60.84C123.282 60.84 122.434 61.416 122.434 62.344ZM143.986 56.104H145.442V66.84H143.986V65.448H141.17V64.424H143.986V56.104ZM133.746 62.568C136.338 62.568 139.826 62.536 142.818 62.152L142.914 63.208C141.714 63.4 140.45 63.528 139.202 63.608V66.36H137.746V63.688C136.386 63.752 135.074 63.768 133.938 63.768L133.746 62.568ZM134.834 59.128C134.834 57.64 136.258 56.664 138.322 56.664C140.386 56.664 141.794 57.64 141.794 59.128C141.794 60.632 140.386 61.608 138.322 61.608C136.258 61.608 134.834 60.632 134.834 59.128ZM135.698 69.928V65.8H137.154V68.728H145.778V69.928H135.698ZM136.226 59.128C136.226 59.992 137.09 60.52 138.322 60.52C139.554 60.52 140.402 59.992 140.402 59.128C140.402 58.28 139.554 57.736 138.322 57.736C137.09 57.736 136.226 58.28 136.226 59.128ZM157.235 56.088H158.723V61.752H160.899V62.968H158.723V70.216H157.235V56.088ZM147.843 66.472C151.363 64.68 153.283 62.104 153.571 58.792H148.531V57.608H155.043C155.043 61.672 153.251 65.288 148.659 67.592L147.843 66.472ZM171.923 56.12H173.379V63.688H171.923V56.12ZM162.083 60.024C162.083 58.104 163.651 56.776 165.795 56.776C167.939 56.776 169.507 58.104 169.507 60.024C169.507 61.96 167.939 63.304 165.795 63.304C163.651 63.304 162.083 61.96 162.083 60.024ZM163.507 60.024C163.507 61.256 164.467 62.072 165.795 62.072C167.123 62.072 168.083 61.256 168.083 60.024C168.083 58.808 167.123 57.976 165.795 57.976C164.467 57.976 163.507 58.808 163.507 60.024ZM164.227 70.04V64.376H165.683V65.976H171.939V64.376H173.379V70.04H164.227ZM165.683 68.872H171.939V67.128H165.683V68.872Z" fill="#9D9D9D"/>
</svg>
