<svg width="25" height="24" viewBox="0 0 25 24" fill="none" xmlns="http://www.w3.org/2000/svg">
<path d="M4.85824 15.7406C6.24376 17.1276 8.08884 17.9603 10.0459 18.0817C12.0029 18.2031 13.9368 17.6049 15.4833 16.3997L20.8043 21.7192C20.993 21.9014 21.2458 22.0022 21.5081 22C21.7705 21.9977 22.0214 21.8925 22.2069 21.707C22.3925 21.5216 22.4977 21.2707 22.5 21.0084C22.5022 20.7461 22.4014 20.4935 22.2191 20.3048L16.8981 14.9853C18.1571 13.3701 18.7524 11.3355 18.5624 9.29654C18.3725 7.2576 17.4117 5.36788 15.876 4.01277C14.3403 2.65766 12.3453 1.93925 10.298 2.00403C8.25066 2.06881 6.30515 2.91192 4.85824 4.3614C4.11061 5.10843 3.51754 5.9954 3.1129 6.97164C2.70827 7.94788 2.5 8.99425 2.5 10.051C2.5 11.1077 2.70827 12.1541 3.1129 13.1303C3.51754 14.1066 4.11061 14.9935 4.85824 15.7406V15.7406ZM6.27304 5.7778C7.26218 4.78897 8.56367 4.17359 9.95577 4.03651C11.3479 3.89943 12.7444 4.24912 13.9076 5.02601C15.0707 5.8029 15.9284 6.95892 16.3345 8.29711C16.7406 9.6353 16.67 11.0729 16.1348 12.3649C15.5996 13.6569 14.6328 14.7234 13.3992 15.3827C12.1656 16.0421 10.7415 16.2534 9.36953 15.9807C7.99754 15.7081 6.76257 14.9683 5.87501 13.8874C4.98746 12.8065 4.50225 11.4514 4.50204 10.053C4.49929 9.25833 4.65443 8.47105 4.95844 7.73682C5.26246 7.00259 5.7093 6.33602 6.27304 5.7758V5.7778Z" fill="#111111"/>
</svg>
