<svg width="24" height="24" viewBox="0 0 24 24" fill="none" xmlns="http://www.w3.org/2000/svg">
<path d="M4.28071 18.3053L10.5737 12.0123L4.28071 5.71929C4.09855 5.53069 3.99776 5.27808 4.00004 5.01589C4.00232 4.75369 4.10749 4.50288 4.29289 4.31747C4.4783 4.13206 4.72911 4.02689 4.99131 4.02461C5.25351 4.02234 5.50611 4.12313 5.69471 4.30529L11.9877 10.5983L18.2807 4.30529C18.373 4.20978 18.4833 4.1336 18.6053 4.08119C18.7273 4.02878 18.8585 4.00119 18.9913 4.00004C19.1241 3.99888 19.2558 4.02419 19.3787 4.07447C19.5016 4.12475 19.6132 4.199 19.7071 4.29289C19.801 4.38679 19.8753 4.49844 19.9255 4.62133C19.9758 4.74423 20.0011 4.87591 20 5.00869C19.9988 5.14147 19.9712 5.27269 19.9188 5.39469C19.8664 5.5167 19.7902 5.62704 19.6947 5.71929L13.4017 12.0123L19.6947 18.3053C19.7902 18.3975 19.8664 18.5079 19.9188 18.6299C19.9712 18.7519 19.9988 18.8831 20 19.0159C20.0011 19.1487 19.9758 19.2803 19.9255 19.4032C19.8753 19.5261 19.801 19.6378 19.7071 19.7317C19.6132 19.8256 19.5016 19.8998 19.3787 19.9501C19.2558 20.0004 19.1241 20.0257 18.9913 20.0245C18.8585 20.0234 18.7273 19.9958 18.6053 19.9434C18.4833 19.891 18.373 19.8148 18.2807 19.7193L11.9877 13.4263L5.69471 19.7193C5.50611 19.9014 5.25351 20.0022 4.99131 20C4.72911 19.9977 4.4783 19.8925 4.29289 19.7071C4.10749 19.5217 4.00232 19.2709 4.00004 19.0087C3.99776 18.7465 4.09855 18.4939 4.28071 18.3053Z" fill="#111111"/>
</svg>
