<svg width="25" height="21" viewBox="0 0 25 21" fill="none" xmlns="http://www.w3.org/2000/svg">
<path d="M6.96575 0.850098L6.96602 0.850098C7.71562 0.849869 8.45652 0.997301 9.14945 1.28418C9.84221 1.57099 10.4717 1.99148 11.0019 2.52163C11.0019 2.52164 11.0019 2.52164 11.0019 2.52165L11.9779 3.49763L12.5078 4.02752L13.0381 3.49806L14.0114 2.52632C15.0871 1.48735 16.5277 0.912041 18.0233 0.924293C19.5208 0.936559 20.9535 1.53689 22.0125 2.59582C23.0714 3.65475 23.6717 5.08744 23.684 6.58495C23.6962 8.08047 23.121 9.52097 22.0822 10.5966L12.5442 20.1362L12.5436 20.1368C12.5389 20.1415 12.5334 20.1452 12.5274 20.1477L12.5273 20.1477C12.5213 20.1502 12.5148 20.1515 12.5082 20.1515C12.5016 20.1515 12.4951 20.1502 12.489 20.1477L12.2016 20.8404L12.489 20.1477C12.4829 20.1452 12.4774 20.1415 12.4728 20.1368L12.4721 20.1362L2.92972 10.5938L2.9297 10.5937C2.13141 9.79552 1.58776 8.77849 1.3675 7.67129C1.14725 6.56408 1.26028 5.41642 1.6923 4.37345C2.12432 3.33048 2.85593 2.43905 3.7946 1.8119C4.73327 1.18474 5.83684 0.850033 6.96575 0.850098Z" stroke="#353535" stroke-width="1.5"/>
</svg>
