<svg width="21" height="19" viewBox="0 0 21 19" fill="none" xmlns="http://www.w3.org/2000/svg">
<path d="M9.83471 0.253244C10.0177 0.0907323 10.254 0.000976562 10.4987 0.000976562C10.7435 0.000976563 10.9797 0.0907323 11.1627 0.253244L20.1627 8.25324C20.3508 8.43196 20.4621 8.67681 20.4731 8.93606C20.484 9.19532 20.3938 9.44868 20.2214 9.64262C20.049 9.83657 19.808 9.9559 19.5492 9.97543C19.2905 9.99495 19.0342 9.91313 18.8347 9.74724L18.4987 9.45024V17.0002C18.4987 17.5307 18.288 18.0394 17.9129 18.4145C17.5378 18.7895 17.0291 19.0002 16.4987 19.0002H4.49871C3.96827 19.0002 3.45957 18.7895 3.08449 18.4145C2.70942 18.0394 2.49871 17.5307 2.49871 17.0002V9.45024L2.16271 9.74724C1.96316 9.91313 1.70696 9.99495 1.44821 9.97543C1.18945 9.9559 0.948423 9.83657 0.776029 9.64262C0.603635 9.44868 0.51338 9.19532 0.524329 8.93606C0.535278 8.67681 0.646574 8.43196 0.834706 8.25324L9.83471 0.253244ZM4.49871 7.67024V17.0002H7.49871V12.0002C7.49871 11.735 7.60406 11.4807 7.7916 11.2931C7.97914 11.1056 8.23349 11.0002 8.49871 11.0002H12.4987C12.7639 11.0002 13.0183 11.1056 13.2058 11.2931C13.3933 11.4807 13.4987 11.735 13.4987 12.0002V17.0002H16.4987V7.67124L10.4987 2.33824L4.49871 7.67024ZM11.4987 17.0002V13.0002H9.49871V17.0002H11.4987Z" fill="#9D9D9D"/>
</svg>
