<svg width="21" height="20" viewBox="0 0 21 20" fill="none" xmlns="http://www.w3.org/2000/svg">
<path d="M9.83471 0.753244C10.0177 0.590732 10.254 0.500977 10.4987 0.500977C10.7435 0.500977 10.9797 0.590732 11.1627 0.753244L20.1627 8.75324C20.3508 8.93196 20.4621 9.17681 20.4731 9.43606C20.484 9.69532 20.3938 9.94868 20.2214 10.1426C20.049 10.3366 19.808 10.4559 19.5492 10.4754C19.2905 10.4949 19.0342 10.4131 18.8347 10.2472L18.4987 9.95024V17.5002C18.4987 18.0307 18.288 18.5394 17.9129 18.9145C17.5378 19.2895 17.0291 19.5002 16.4987 19.5002H4.49871C3.96827 19.5002 3.45957 19.2895 3.08449 18.9145C2.70942 18.5394 2.49871 18.0307 2.49871 17.5002V9.95024L2.16271 10.2472C1.96316 10.4131 1.70696 10.4949 1.44821 10.4754C1.18945 10.4559 0.948423 10.3366 0.776029 10.1426C0.603635 9.94868 0.51338 9.69532 0.524329 9.43606C0.535278 9.17681 0.646574 8.93196 0.834706 8.75324L9.83471 0.753244ZM4.49871 8.17024V17.5002H7.49871V12.5002C7.49871 12.235 7.60406 11.9807 7.7916 11.7931C7.97914 11.6056 8.23349 11.5002 8.49871 11.5002H12.4987C12.7639 11.5002 13.0183 11.6056 13.2058 11.7931C13.3933 11.9807 13.4987 12.235 13.4987 12.5002V17.5002H16.4987V8.17124L10.4987 2.83824L4.49871 8.17024ZM11.4987 17.5002V13.5002H9.49871V17.5002H11.4987Z" fill="#111111"/>
</svg>
