<svg width="21" height="22" viewBox="0 0 21 22" fill="none" xmlns="http://www.w3.org/2000/svg">
<path d="M9.75754 11.2575C9.56063 11.4545 9.45 11.7215 9.45 12V15C9.45 15.2785 9.56063 15.5455 9.75754 15.7425C9.95445 15.9394 10.2215 16.05 10.5 16.05C10.7785 16.05 11.0455 15.9394 11.2425 15.7425C11.4394 15.5455 11.55 15.2785 11.55 15V12C11.55 11.7215 11.4394 11.4545 11.2425 11.2575C11.0455 11.0606 10.7785 10.95 10.5 10.95C10.2215 10.95 9.95445 11.0606 9.75754 11.2575ZM10.5 6.45C10.0889 6.45 9.69467 6.6133 9.40398 6.90398C9.1133 7.19467 8.95 7.58891 8.95 8C8.95 8.41109 9.1133 8.80533 9.40398 9.09602C9.69467 9.3867 10.0889 9.55 10.5 9.55C10.9111 9.55 11.3053 9.3867 11.596 9.09602C11.8867 8.80533 12.05 8.41109 12.05 8C12.05 7.58891 11.8867 7.19467 11.596 6.90398C11.3053 6.6133 10.9111 6.45 10.5 6.45ZM3.39358 3.89358C1.50884 5.77832 0.45 8.33457 0.45 11C0.45 13.6654 1.50884 16.2217 3.39358 18.1064C5.27832 19.9912 7.83457 21.05 10.5 21.05C13.1654 21.05 15.7217 19.9912 17.6064 18.1064C19.4912 16.2217 20.55 13.6654 20.55 11C20.55 8.33457 19.4912 5.77832 17.6064 3.89358C15.7217 2.00884 13.1654 0.95 10.5 0.95C7.83457 0.95 5.27832 2.00884 3.39358 3.89358ZM4.8785 5.3785C6.36942 3.88759 8.39153 3.05 10.5 3.05C12.6085 3.05 14.6306 3.88759 16.1215 5.3785C17.6124 6.86942 18.45 8.89153 18.45 11C18.45 13.1085 17.6124 15.1306 16.1215 16.6215C14.6306 18.1124 12.6085 18.95 10.5 18.95C8.39153 18.95 6.36942 18.1124 4.8785 16.6215C3.38759 15.1306 2.55 13.1085 2.55 11C2.55 8.89153 3.38759 6.86942 4.8785 5.3785Z" fill="#9D9D9D" stroke="#9D9D9D" stroke-width="0.1"/>
</svg>
