<svg width="21" height="21" viewBox="0 0 21 21" fill="none" xmlns="http://www.w3.org/2000/svg">
<path d="M9.75754 10.7575C9.56063 10.9545 9.45 11.2215 9.45 11.5V14.5C9.45 14.7785 9.56063 15.0455 9.75754 15.2425C9.95445 15.4394 10.2215 15.55 10.5 15.55C10.7785 15.55 11.0455 15.4394 11.2425 15.2425C11.4394 15.0455 11.55 14.7785 11.55 14.5V11.5C11.55 11.2215 11.4394 10.9545 11.2425 10.7575C11.0455 10.5606 10.7785 10.45 10.5 10.45C10.2215 10.45 9.95445 10.5606 9.75754 10.7575ZM10.5 5.95C10.0889 5.95 9.69467 6.1133 9.40398 6.40398C9.1133 6.69467 8.95 7.08891 8.95 7.5C8.95 7.91109 9.1133 8.30533 9.40398 8.59602C9.69467 8.8867 10.0889 9.05 10.5 9.05C10.9111 9.05 11.3053 8.8867 11.596 8.59602C11.8867 8.30533 12.05 7.91109 12.05 7.5C12.05 7.08891 11.8867 6.69467 11.596 6.40398C11.3053 6.1133 10.9111 5.95 10.5 5.95ZM3.39358 3.39358C1.50884 5.27832 0.45 7.83457 0.45 10.5C0.45 13.1654 1.50884 15.7217 3.39358 17.6064C5.27832 19.4912 7.83457 20.55 10.5 20.55C13.1654 20.55 15.7217 19.4912 17.6064 17.6064C19.4912 15.7217 20.55 13.1654 20.55 10.5C20.55 7.83457 19.4912 5.27832 17.6064 3.39358C15.7217 1.50884 13.1654 0.45 10.5 0.45C7.83457 0.45 5.27832 1.50884 3.39358 3.39358ZM4.8785 4.8785C6.36942 3.38759 8.39153 2.55 10.5 2.55C12.6085 2.55 14.6306 3.38759 16.1215 4.8785C17.6124 6.36942 18.45 8.39153 18.45 10.5C18.45 12.6085 17.6124 14.6306 16.1215 16.1215C14.6306 17.6124 12.6085 18.45 10.5 18.45C8.39153 18.45 6.36942 17.6124 4.8785 16.1215C3.38759 14.6306 2.55 12.6085 2.55 10.5C2.55 8.39153 3.38759 6.36942 4.8785 4.8785Z" fill="#111111" stroke="#111111" stroke-width="0.1"/>
</svg>
