<svg width="20" height="17" viewBox="0 0 20 17" fill="none" xmlns="http://www.w3.org/2000/svg">
<path d="M1.93548 3.92308C2.44881 3.92308 2.9411 3.71642 3.30408 3.34856C3.66705 2.9807 3.87097 2.48177 3.87097 1.96154C3.87097 1.44131 3.66705 0.942381 3.30408 0.574521C2.9411 0.206662 2.44881 0 1.93548 0C1.42216 0 0.929864 0.206662 0.56689 0.574521C0.203916 0.942381 0 1.44131 0 1.96154C0 2.48177 0.203916 2.9807 0.56689 3.34856C0.929864 3.71642 1.42216 3.92308 1.93548 3.92308ZM7.09677 0.653846C6.38306 0.653846 5.80645 1.23822 5.80645 1.96154C5.80645 2.68486 6.38306 3.26923 7.09677 3.26923H18.7097C19.4234 3.26923 20 2.68486 20 1.96154C20 1.23822 19.4234 0.653846 18.7097 0.653846H7.09677ZM7.09677 7.19231C6.38306 7.19231 5.80645 7.77668 5.80645 8.5C5.80645 9.22332 6.38306 9.80769 7.09677 9.80769H18.7097C19.4234 9.80769 20 9.22332 20 8.5C20 7.77668 19.4234 7.19231 18.7097 7.19231H7.09677ZM7.09677 13.7308C6.38306 13.7308 5.80645 14.3151 5.80645 15.0385C5.80645 15.7618 6.38306 16.3462 7.09677 16.3462H18.7097C19.4234 16.3462 20 15.7618 20 15.0385C20 14.3151 19.4234 13.7308 18.7097 13.7308H7.09677ZM1.93548 17C2.44881 17 2.9411 16.7933 3.30408 16.4255C3.66705 16.0576 3.87097 15.5587 3.87097 15.0385C3.87097 14.5182 3.66705 14.0193 3.30408 13.6514C2.9411 13.2836 2.44881 13.0769 1.93548 13.0769C1.42216 13.0769 0.929864 13.2836 0.56689 13.6514C0.203916 14.0193 0 14.5182 0 15.0385C0 15.5587 0.203916 16.0576 0.56689 16.4255C0.929864 16.7933 1.42216 17 1.93548 17ZM3.87097 8.5C3.87097 8.24241 3.8209 7.98734 3.72364 7.74935C3.62637 7.51137 3.4838 7.29513 3.30408 7.11298C3.12435 6.93084 2.91099 6.78635 2.67616 6.68777C2.44134 6.5892 2.18966 6.53846 1.93548 6.53846C1.68131 6.53846 1.42963 6.5892 1.19481 6.68777C0.959983 6.78635 0.746616 6.93084 0.56689 7.11298C0.387164 7.29513 0.244597 7.51137 0.14733 7.74935C0.0500627 7.98734 -3.78745e-09 8.24241 0 8.5C-3.78745e-09 8.75759 0.0500627 9.01266 0.14733 9.25065C0.244597 9.48863 0.387164 9.70487 0.56689 9.88702C0.746616 10.0692 0.959983 10.2136 1.19481 10.3122C1.42963 10.4108 1.68131 10.4615 1.93548 10.4615C2.18966 10.4615 2.44134 10.4108 2.67616 10.3122C2.91099 10.2136 3.12435 10.0692 3.30408 9.88702C3.4838 9.70487 3.62637 9.48863 3.72364 9.25065C3.8209 9.01266 3.87097 8.75759 3.87097 8.5Z" fill="#9D9D9D"/>
</svg>
