<svg width="19" height="19" viewBox="0 0 19 19" fill="none" xmlns="http://www.w3.org/2000/svg">
<path d="M13.0608 10.1156C13.8988 9.41354 14.5116 8.47833 14.8202 7.42684C15.1448 6.32077 15.1165 5.14103 14.7394 4.05176C14.3622 2.96248 13.655 2.01785 12.716 1.34926C11.777 0.680672 10.6529 0.321387 9.5002 0.321387C8.34749 0.321387 7.22344 0.680672 6.28443 1.34926C5.34542 2.01785 4.63815 2.96248 4.26101 4.05176C3.88388 5.14103 3.85563 6.32077 4.1802 7.42684C4.48882 8.47853 5.10181 9.41389 5.94011 10.116C4.46443 10.7391 3.17661 11.7381 2.20587 13.0147C1.20097 14.3363 0.573535 15.9058 0.390458 17.5559L0.390448 17.556C0.375904 17.6882 0.387545 17.822 0.424704 17.9497C0.461864 18.0774 0.523814 18.1965 0.607019 18.3003C0.77506 18.5099 1.01947 18.6441 1.28649 18.6735C1.5535 18.7029 1.82125 18.625 2.03083 18.4569C2.24035 18.2889 2.37457 18.0446 2.404 17.7777C2.6005 16.0284 3.43463 14.4128 4.74701 13.2395C6.05939 12.0663 7.75801 11.4178 9.51835 11.4178C11.2787 11.4178 12.9773 12.0663 14.2897 13.2395C15.602 14.4127 16.4361 16.0283 16.6327 17.7775C16.6601 18.0251 16.7782 18.2537 16.9642 18.4193C17.1502 18.5848 17.3908 18.6755 17.6397 18.6741H17.6395V18.5741L17.6401 18.6741L13.0608 10.1156ZM13.0608 10.1156C13.0318 10.1399 13.0026 10.1639 12.9731 10.1875C14.4593 10.7992 15.757 11.795 16.7328 13.0737C17.7319 14.3829 18.3558 15.9392 18.5378 17.576L13.0608 10.1156ZM9.5002 9.40024C8.80212 9.40024 8.11972 9.19324 7.53929 8.80541C6.95886 8.41757 6.50647 7.86633 6.23932 7.22139C5.97218 6.57645 5.90228 5.86678 6.03847 5.18211C6.17466 4.49745 6.51082 3.86854 7.00443 3.37493C7.49805 2.88131 8.12695 2.54515 8.81162 2.40897C9.49628 2.27278 10.206 2.34267 10.8509 2.60982C11.4958 2.87696 12.0471 3.32935 12.4349 3.90978C12.8227 4.49021 13.0297 5.17262 13.0297 5.87069C13.0297 6.80679 12.6579 7.70454 11.996 8.36646C11.334 9.02838 10.4363 9.40024 9.5002 9.40024Z" fill="#111111" stroke="#111111" stroke-width="0.2"/>
</svg>
