<svg width="19" height="20" viewBox="0 0 19 20" fill="none" xmlns="http://www.w3.org/2000/svg">
<path d="M13.0608 10.6152C13.8988 9.91305 14.5116 8.97784 14.8202 7.92635C15.1448 6.82028 15.1165 5.64054 14.7394 4.55127C14.3622 3.462 13.655 2.51736 12.716 1.84877C11.777 1.18018 10.6529 0.820898 9.5002 0.820898C8.34749 0.820898 7.22344 1.18018 6.28443 1.84877C5.34542 2.51736 4.63815 3.462 4.26101 4.55127C3.88388 5.64054 3.85563 6.82028 4.1802 7.92635C4.48882 8.97804 5.10181 9.9134 5.94011 10.6155C4.46443 11.2386 3.17661 12.2376 2.20587 13.5143C1.20097 14.8358 0.573535 16.4053 0.390458 18.0554L0.390448 18.0555C0.375904 18.1877 0.387545 18.3215 0.424704 18.4492C0.461864 18.5769 0.523814 18.6961 0.607019 18.7998C0.77506 19.0094 1.01947 19.1436 1.28649 19.173C1.5535 19.2024 1.82125 19.1245 2.03083 18.9564C2.24035 18.7885 2.37457 18.5441 2.404 18.2772C2.6005 16.5279 3.43463 14.9123 4.74701 13.7391C6.05939 12.5658 7.75801 11.9173 9.51835 11.9173C11.2787 11.9173 12.9773 12.5658 14.2897 13.7391C15.602 14.9122 16.4361 16.5278 16.6327 18.277C16.6601 18.5246 16.7782 18.7532 16.9642 18.9188C17.1502 19.0843 17.3908 19.1751 17.6397 19.1736H17.6395V19.0736L17.6401 19.1736L13.0608 10.6152ZM13.0608 10.6152C13.0318 10.6394 13.0026 10.6634 12.9731 10.6871C14.4593 11.2988 15.757 12.2945 16.7328 13.5732C17.7319 14.8824 18.3558 16.4388 18.5378 18.0755L13.0608 10.6152ZM9.5002 9.89975C8.80212 9.89975 8.11972 9.69275 7.53929 9.30492C6.95886 8.91709 6.50647 8.36585 6.23932 7.72091C5.97218 7.07597 5.90228 6.36629 6.03847 5.68163C6.17466 4.99696 6.51082 4.36806 7.00443 3.87444C7.49805 3.38082 8.12695 3.04467 8.81162 2.90848C9.49628 2.77229 10.206 2.84219 10.8509 3.10933C11.4958 3.37647 12.0471 3.82886 12.4349 4.40929C12.8227 4.98973 13.0297 5.67213 13.0297 6.37021C13.0297 7.3063 12.6579 8.20405 11.996 8.86597C11.334 9.52789 10.4363 9.89975 9.5002 9.89975Z" fill="#9D9D9D" stroke="#9D9D9D" stroke-width="0.2"/>
</svg>
