<svg width="19" height="19" viewBox="0 0 19 19" fill="none" xmlns="http://www.w3.org/2000/svg">
<path d="M10.0507 6.45886L10.0505 6.45854C10.0028 6.35379 9.92595 6.26497 9.82914 6.2027C9.73233 6.14042 9.61965 6.1073 9.50453 6.1073C9.38942 6.1073 9.27673 6.14042 9.17992 6.2027C9.08311 6.26497 9.00626 6.35379 8.95853 6.45854L8.95839 6.45886L8.18399 8.1743L6.45858 8.94877L6.45807 8.949C6.35332 8.99673 6.2645 9.07358 6.20223 9.17039C6.13995 9.2672 6.10684 9.37989 6.10684 9.495C6.10684 9.61011 6.13995 9.7228 6.20223 9.81961C6.2645 9.91642 6.35332 9.99327 6.45807 10.041L6.45839 10.0411L8.17383 10.8155L8.9483 12.541L8.94853 12.5415C8.99626 12.6462 9.07311 12.735 9.16992 12.7973C9.26673 12.8596 9.37942 12.8927 9.49453 12.8927C9.60964 12.8927 9.72233 12.8596 9.81914 12.7973C9.91595 12.735 9.9928 12.6462 10.0405 12.5415L10.0407 12.5411L10.8151 10.8257L12.5405 10.0512L12.541 10.051C12.6457 10.0033 12.7346 9.92642 12.7968 9.82961C12.8591 9.7328 12.8922 9.62011 12.8922 9.505C12.8922 9.38989 12.8591 9.2772 12.7968 9.18039C12.7346 9.08358 12.6457 9.00673 12.541 8.959L10.8252 8.17465L10.0507 6.45886ZM14.0595 2.19652L14.0595 2.19651L14.0585 2.19862L13.474 3.48448L12.1886 4.06875C12.1886 4.06878 12.1885 4.0688 12.1884 4.06883C11.817 4.23552 11.8236 4.76508 12.1861 4.94005L12.186 4.94008L12.1882 4.94104L13.474 5.52552L14.0583 6.81091C14.0583 6.81098 14.0583 6.81105 14.0584 6.81112C14.2251 7.18255 14.7546 7.17592 14.9296 6.81348L14.9296 6.81349L14.9306 6.81138L15.5151 5.52552L16.8004 4.94125C16.8005 4.94121 16.8006 4.94116 16.8007 4.94112C17.1721 4.77436 17.1654 4.2449 16.803 4.06994L16.803 4.06992L16.8009 4.06896L15.5151 3.48448L14.9308 2.19909C14.9308 2.19903 14.9307 2.19896 14.9307 2.1989C14.764 1.82745 14.2345 1.83408 14.0595 2.19652ZM16.4195 8.49V15.5C16.4195 15.9948 16.0143 16.4 15.5195 16.4H3.49953C3.00476 16.4 2.59953 15.9948 2.59953 15.5V3.5C2.59953 3.00523 3.00476 2.6 3.49953 2.6H10.4995C11.1048 2.6 11.5995 2.10523 11.5995 1.5C11.5995 0.894772 11.1048 0.4 10.4995 0.4H2.51953C1.3643 0.4 0.419531 1.34477 0.419531 2.5V16.5C0.419531 17.6552 1.3643 18.6 2.51953 18.6H16.4995C17.0565 18.6 17.5906 18.3787 17.9845 17.9849C18.3783 17.5911 18.5995 17.057 18.5995 16.5V8.49C18.5995 7.88477 18.1148 7.4 17.5095 7.4C16.9043 7.4 16.4195 7.88477 16.4195 8.49Z" fill="#9D9D9D" stroke="#9D9D9D" stroke-width="0.2"/>
</svg>
