<svg width="21" height="21" viewBox="0 0 21 21" fill="none" xmlns="http://www.w3.org/2000/svg">
<path d="M13.85 18.5L11.9 20.425C11.5167 20.8083 11.05 21 10.5 21C9.95 21 9.48333 20.8083 9.1 20.425L7.15 18.5H4.5C3.95 18.5 3.479 18.304 3.087 17.912C2.695 17.52 2.49933 17.0493 2.5 16.5V13.85L0.575 11.9C0.191667 11.5167 0 11.05 0 10.5C0 9.95 0.191667 9.48333 0.575 9.1L2.5 7.15V4.5C2.5 3.95 2.696 3.479 3.088 3.087C3.48 2.695 3.95067 2.49933 4.5 2.5H7.15L9.1 0.575C9.48333 0.191667 9.95 0 10.5 0C11.05 0 11.5167 0.191667 11.9 0.575L13.85 2.5H16.5C17.05 2.5 17.521 2.696 17.913 3.088C18.305 3.48 18.5007 3.95067 18.5 4.5V7.15L20.425 9.1C20.8083 9.48333 21 9.95 21 10.5C21 11.05 20.8083 11.5167 20.425 11.9L18.5 13.85V16.5C18.5 17.05 18.304 17.521 17.912 17.913C17.52 18.305 17.0493 18.5007 16.5 18.5H13.85ZM10.5 19L13 16.5H16.5V13L19 10.5L16.5 8V4.5H13L10.5 2L8 4.5H4.5V8L2 10.5L4.5 13V16.5H8L10.5 19ZM10.5 12.975L12.4 14.125C12.5833 14.2417 12.7667 14.2373 12.95 14.112C13.1333 13.9867 13.2 13.816 13.15 13.6L12.65 11.425L14.35 9.95C14.5167 9.8 14.5667 9.621 14.5 9.413C14.4333 9.205 14.2833 9.09233 14.05 9.075L11.825 8.9L10.95 6.85C10.8667 6.65 10.7167 6.55 10.5 6.55C10.2833 6.55 10.1333 6.65 10.05 6.85L9.175 8.9L6.95 9.075C6.71667 9.09167 6.56667 9.20433 6.5 9.413C6.43333 9.62167 6.48333 9.80067 6.65 9.95L8.35 11.425L7.85 13.6C7.8 13.8167 7.86667 13.9877 8.05 14.113C8.23333 14.2383 8.41667 14.2423 8.6 14.125L10.5 12.975Z" fill="#111111"/>
</svg>
