<svg width="21" height="22" viewBox="0 0 21 22" fill="none" xmlns="http://www.w3.org/2000/svg">
<path d="M13.85 19L11.9 20.925C11.5167 21.3083 11.05 21.5 10.5 21.5C9.95 21.5 9.48333 21.3083 9.1 20.925L7.15 19H4.5C3.95 19 3.479 18.804 3.087 18.412C2.695 18.02 2.49933 17.5493 2.5 17V14.35L0.575 12.4C0.191667 12.0167 0 11.55 0 11C0 10.45 0.191667 9.98333 0.575 9.6L2.5 7.65V5C2.5 4.45 2.696 3.979 3.088 3.587C3.48 3.195 3.95067 2.99933 4.5 3H7.15L9.1 1.075C9.48333 0.691667 9.95 0.5 10.5 0.5C11.05 0.5 11.5167 0.691667 11.9 1.075L13.85 3H16.5C17.05 3 17.521 3.196 17.913 3.588C18.305 3.98 18.5007 4.45067 18.5 5V7.65L20.425 9.6C20.8083 9.98333 21 10.45 21 11C21 11.55 20.8083 12.0167 20.425 12.4L18.5 14.35V17C18.5 17.55 18.304 18.021 17.912 18.413C17.52 18.805 17.0493 19.0007 16.5 19H13.85ZM10.5 19.5L13 17H16.5V13.5L19 11L16.5 8.5V5H13L10.5 2.5L8 5H4.5V8.5L2 11L4.5 13.5V17H8L10.5 19.5ZM10.5 13.475L12.4 14.625C12.5833 14.7417 12.7667 14.7373 12.95 14.612C13.1333 14.4867 13.2 14.316 13.15 14.1L12.65 11.925L14.35 10.45C14.5167 10.3 14.5667 10.121 14.5 9.913C14.4333 9.705 14.2833 9.59233 14.05 9.575L11.825 9.4L10.95 7.35C10.8667 7.15 10.7167 7.05 10.5 7.05C10.2833 7.05 10.1333 7.15 10.05 7.35L9.175 9.4L6.95 9.575C6.71667 9.59167 6.56667 9.70433 6.5 9.913C6.43333 10.1217 6.48333 10.3007 6.65 10.45L8.35 11.925L7.85 14.1C7.8 14.3167 7.86667 14.4877 8.05 14.613C8.23333 14.7383 8.41667 14.7423 8.6 14.625L10.5 13.475Z" fill="#9D9D9D"/>
</svg>
