<svg width="22" height="22" viewBox="0 0 22 22" fill="none" xmlns="http://www.w3.org/2000/svg">
<path d="M10.4612 0.494583C10.8553 -0.114354 11.7463 -0.114354 12.1403 0.494583L13.4137 2.46234C13.6709 2.85974 14.1715 3.02239 14.6131 2.85205L16.8 2.00859C17.4767 1.74757 18.1975 2.27126 18.1584 2.99553L18.0319 5.33596C18.0064 5.80863 18.3158 6.23445 18.7732 6.35624L21.0382 6.95925C21.7391 7.14585 22.0144 7.9932 21.557 8.55615L20.0791 10.3753C19.7806 10.7427 19.7806 11.269 20.0791 11.6364L21.557 13.4556C22.0144 14.0185 21.7391 14.8659 21.0382 15.0525L18.7732 15.6555C18.3158 15.7773 18.0064 16.2031 18.0319 16.6758L18.1584 19.0162C18.1975 19.7405 17.4767 20.2641 16.8 20.0031L14.6131 19.1597C14.1715 18.9893 13.6709 19.152 13.4137 19.5494L12.1403 21.5171C11.7463 22.1261 10.8553 22.1261 10.4612 21.5171L9.18784 19.5494C8.93066 19.152 8.43008 18.9893 7.98843 19.1597L5.80161 20.0031C5.12488 20.2641 4.40409 19.7405 4.44321 19.0162L4.56962 16.6758C4.59515 16.2031 4.28577 15.7773 3.82835 15.6555L1.5634 15.0525C0.862489 14.8659 0.58717 14.0185 1.04453 13.4556L2.52247 11.6364C2.82096 11.269 2.82096 10.7427 2.52247 10.3753L1.04453 8.55615C0.58717 7.9932 0.862489 7.14585 1.5634 6.95925L3.82835 6.35624C4.28577 6.23445 4.59515 5.80863 4.56962 5.33596L4.44321 2.99553C4.40409 2.27126 5.12488 1.74757 5.80161 2.00859L7.98843 2.85205C8.43008 3.02239 8.93066 2.85974 9.18784 2.46234L10.4612 0.494583Z" fill="#353535"/>
</svg>
