<svg width="18" height="15" viewBox="0 0 18 15" fill="none" xmlns="http://www.w3.org/2000/svg">
<path d="M2.57239 3.79458C3.03148 3.79458 3.47176 3.61221 3.79638 3.28759C4.121 2.96297 4.30337 2.52269 4.30337 2.0636C4.30337 1.60452 4.121 1.16423 3.79638 0.839611C3.47176 0.514988 3.03148 0.332617 2.57239 0.332617C2.1133 0.332617 1.67302 0.514988 1.3484 0.839611C1.02378 1.16423 0.841406 1.60452 0.841406 2.0636C0.841406 2.52269 1.02378 2.96297 1.3484 3.28759C1.67302 3.61221 2.1133 3.79458 2.57239 3.79458ZM6.92168 0.876278C6.26503 0.876278 5.73436 1.40695 5.73436 2.0636C5.73436 2.72025 6.26503 3.25092 6.92168 3.25092H16.7076C17.3642 3.25092 17.8949 2.72025 17.8949 2.0636C17.8949 1.40695 17.3642 0.876278 16.7076 0.876278H6.92168ZM6.92168 6.31289C6.26503 6.31289 5.73436 6.84356 5.73436 7.50021C5.73436 8.15687 6.26503 8.68754 6.92168 8.68754H16.7076C17.3642 8.68754 17.8949 8.15687 17.8949 7.50021C17.8949 6.84356 17.3642 6.31289 16.7076 6.31289H6.92168ZM6.92168 11.7495C6.26503 11.7495 5.73436 12.2802 5.73436 12.9368C5.73436 13.5935 6.26503 14.1241 6.92168 14.1241H16.7076C17.3642 14.1241 17.8949 13.5935 17.8949 12.9368C17.8949 12.2802 17.3642 11.7495 16.7076 11.7495H6.92168ZM2.57239 14.6678C3.03148 14.6678 3.47176 14.4854 3.79638 14.1608C4.121 13.8362 4.30337 13.3959 4.30337 12.9368C4.30337 12.4777 4.121 12.0375 3.79638 11.7128C3.47176 11.3882 3.03148 11.2058 2.57239 11.2058C2.1133 11.2058 1.67302 11.3882 1.3484 11.7128C1.02378 12.0375 0.841406 12.4777 0.841406 12.9368C0.841406 13.3959 1.02378 13.8362 1.3484 14.1608C1.67302 14.4854 2.1133 14.6678 2.57239 14.6678ZM4.30337 7.50021C4.30337 7.2729 4.2586 7.04781 4.17161 6.83779C4.08462 6.62778 3.95712 6.43696 3.79638 6.27622C3.63564 6.11549 3.44482 5.98798 3.23481 5.90099C3.0248 5.814 2.79971 5.76923 2.57239 5.76923C2.34507 5.76923 2.11998 5.814 1.90997 5.90099C1.69996 5.98798 1.50914 6.11549 1.3484 6.27622C1.18766 6.43696 1.06016 6.62778 0.97317 6.83779C0.886179 7.04781 0.841406 7.2729 0.841406 7.50021C0.841406 7.72753 0.886179 7.95262 0.97317 8.16263C1.06016 8.37264 1.18766 8.56347 1.3484 8.7242C1.50914 8.88494 1.69996 9.01244 1.90997 9.09943C2.11998 9.18642 2.34507 9.2312 2.57239 9.2312C2.79971 9.2312 3.0248 9.18642 3.23481 9.09943C3.44482 9.01244 3.63564 8.88494 3.79638 8.7242C3.95712 8.56347 4.08462 8.37264 4.17161 8.16263C4.2586 7.95262 4.30337 7.72753 4.30337 7.50021Z" fill="#858585" stroke="#858585" stroke-width="0.2"/>
</svg>
