<svg width="20" height="19" viewBox="0 0 20 19" fill="none" xmlns="http://www.w3.org/2000/svg">
<path d="M12.2122 9.29995L12.1334 9.19515L12.0532 9.29873L9.1297 13.07L7.06928 10.5763L6.9898 10.4801L6.91323 10.5786L3.91323 14.4386L3.78782 14.6H3.99219H15.9922H16.1923L16.0722 14.4399L12.2122 9.29995ZM16.8922 2.6V16.4H3.09219V2.6H16.8922ZM16.9922 0.4H2.99219C1.83696 0.4 0.892187 1.34477 0.892187 2.5V16.5C0.892187 17.6552 1.83696 18.6 2.99219 18.6H16.9922C18.1474 18.6 19.0922 17.6552 19.0922 16.5V2.5C19.0922 1.34477 18.1474 0.4 16.9922 0.4Z" fill="#858585" stroke="#858585" stroke-width="0.2"/>
</svg>
