<svg width="20" height="20" viewBox="0 0 20 20" fill="none" xmlns="http://www.w3.org/2000/svg">
<path d="M9.32689 0.753244C9.5099 0.590732 9.74615 0.500977 9.99089 0.500977C10.2356 0.500977 10.4719 0.590732 10.6549 0.753244L19.6549 8.75324C19.843 8.93196 19.9543 9.17681 19.9653 9.43606C19.9762 9.69532 19.886 9.94868 19.7136 10.1426C19.5412 10.3366 19.3001 10.4559 19.0414 10.4754C18.7826 10.4949 18.5264 10.4131 18.3269 10.2472L17.9909 9.95024V17.5002C17.9909 18.0307 17.7802 18.5394 17.4051 18.9145C17.03 19.2895 16.5213 19.5002 15.9909 19.5002H3.99089C3.46046 19.5002 2.95175 19.2895 2.57668 18.9145C2.20161 18.5394 1.99089 18.0307 1.99089 17.5002V9.95024L1.65489 10.2472C1.45535 10.4131 1.19914 10.4949 0.940393 10.4754C0.681642 10.4559 0.44061 10.3366 0.268217 10.1426C0.095823 9.94868 0.00556743 9.69532 0.0165164 9.43606C0.0274655 9.17681 0.138762 8.93196 0.326894 8.75324L9.32689 0.753244ZM3.99089 8.17024V17.5002H6.99089V12.5002C6.99089 12.235 7.09625 11.9807 7.28379 11.7931C7.47132 11.6056 7.72568 11.5002 7.99089 11.5002H11.9909C12.2561 11.5002 12.5105 11.6056 12.698 11.7931C12.8855 11.9807 12.9909 12.235 12.9909 12.5002V17.5002H15.9909V8.17124L9.99089 2.83824L3.99089 8.17024ZM10.9909 17.5002V13.5002H8.99089V17.5002H10.9909Z" fill="#111111"/>
</svg>
