<svg width="22" height="21" viewBox="0 0 22 21" fill="none" xmlns="http://www.w3.org/2000/svg">
<path d="M10.2497 10.7575C10.0528 10.9545 9.94219 11.2215 9.94219 11.5V14.5C9.94219 14.7785 10.0528 15.0455 10.2497 15.2425C10.4466 15.4394 10.7137 15.55 10.9922 15.55C11.2707 15.55 11.5377 15.4394 11.7346 15.2425C11.9316 15.0455 12.0422 14.7785 12.0422 14.5V11.5C12.0422 11.2215 11.9316 10.9545 11.7346 10.7575C11.5377 10.5606 11.2707 10.45 10.9922 10.45C10.7137 10.45 10.4466 10.5606 10.2497 10.7575ZM10.9922 5.95C10.5811 5.95 10.1869 6.1133 9.89617 6.40398C9.60549 6.69467 9.44219 7.08891 9.44219 7.5C9.44219 7.91109 9.60549 8.30533 9.89617 8.59602C10.1869 8.8867 10.5811 9.05 10.9922 9.05C11.4033 9.05 11.7975 8.8867 12.0882 8.59602C12.3789 8.30533 12.5422 7.91109 12.5422 7.5C12.5422 7.08891 12.3789 6.69467 12.0882 6.40398C11.7975 6.1133 11.4033 5.95 10.9922 5.95ZM3.88576 3.39358C2.00102 5.27832 0.942187 7.83457 0.942187 10.5C0.942187 13.1654 2.00102 15.7217 3.88576 17.6064C5.7705 19.4912 8.32676 20.55 10.9922 20.55C13.6576 20.55 16.2139 19.4912 18.0986 17.6064C19.9834 15.7217 21.0422 13.1654 21.0422 10.5C21.0422 7.83457 19.9834 5.27832 18.0986 3.39358C16.2139 1.50884 13.6576 0.45 10.9922 0.45C8.32676 0.45 5.7705 1.50884 3.88576 3.39358ZM5.37069 4.8785C6.8616 3.38759 8.88372 2.55 10.9922 2.55C13.1007 2.55 15.1228 3.38759 16.6137 4.8785C18.1046 6.36942 18.9422 8.39153 18.9422 10.5C18.9422 12.6085 18.1046 14.6306 16.6137 16.1215C15.1228 17.6124 13.1007 18.45 10.9922 18.45C8.88372 18.45 6.8616 17.6124 5.37069 16.1215C3.87977 14.6306 3.04219 12.6085 3.04219 10.5C3.04219 8.39153 3.87977 6.36942 5.37069 4.8785Z" fill="#858585" stroke="#858585" stroke-width="0.1"/>
</svg>
