<svg width="22" height="21" viewBox="0 0 22 21" fill="none" xmlns="http://www.w3.org/2000/svg">
<path d="M14.3422 18.5L12.3922 20.425C12.0089 20.8083 11.5422 21 10.9922 21C10.4422 21 9.97552 20.8083 9.59219 20.425L7.64219 18.5H4.99219C4.44219 18.5 3.97119 18.304 3.57919 17.912C3.18719 17.52 2.99152 17.0493 2.99219 16.5V13.85L1.06719 11.9C0.683854 11.5167 0.492188 11.05 0.492188 10.5C0.492188 9.95 0.683854 9.48333 1.06719 9.1L2.99219 7.15V4.5C2.99219 3.95 3.18819 3.479 3.58019 3.087C3.97219 2.695 4.44285 2.49933 4.99219 2.5H7.64219L9.59219 0.575C9.97552 0.191667 10.4422 0 10.9922 0C11.5422 0 12.0089 0.191667 12.3922 0.575L14.3422 2.5H16.9922C17.5422 2.5 18.0132 2.696 18.4052 3.088C18.7972 3.48 18.9929 3.95067 18.9922 4.5V7.15L20.9172 9.1C21.3005 9.48333 21.4922 9.95 21.4922 10.5C21.4922 11.05 21.3005 11.5167 20.9172 11.9L18.9922 13.85V16.5C18.9922 17.05 18.7962 17.521 18.4042 17.913C18.0122 18.305 17.5415 18.5007 16.9922 18.5H14.3422ZM10.9922 19L13.4922 16.5H16.9922V13L19.4922 10.5L16.9922 8V4.5H13.4922L10.9922 2L8.49219 4.5H4.99219V8L2.49219 10.5L4.99219 13V16.5H8.49219L10.9922 19ZM10.9922 12.975L12.8922 14.125C13.0755 14.2417 13.2589 14.2373 13.4422 14.112C13.6255 13.9867 13.6922 13.816 13.6422 13.6L13.1422 11.425L14.8422 9.95C15.0089 9.8 15.0589 9.621 14.9922 9.413C14.9255 9.205 14.7755 9.09233 14.5422 9.075L12.3172 8.9L11.4422 6.85C11.3589 6.65 11.2089 6.55 10.9922 6.55C10.7755 6.55 10.6255 6.65 10.5422 6.85L9.66719 8.9L7.44219 9.075C7.20885 9.09167 7.05885 9.20433 6.99219 9.413C6.92552 9.62167 6.97552 9.80067 7.14219 9.95L8.84219 11.425L8.34219 13.6C8.29219 13.8167 8.35885 13.9877 8.54219 14.113C8.72552 14.2383 8.90885 14.2423 9.09219 14.125L10.9922 12.975Z" fill="#858585"/>
</svg>
