<svg width="20" height="19" viewBox="0 0 20 19" fill="none" xmlns="http://www.w3.org/2000/svg">
<path d="M13.5529 10.1156C14.391 9.41354 15.0038 8.47833 15.3124 7.42684C15.637 6.32077 15.6087 5.14103 15.2316 4.05176C14.8544 2.96248 14.1472 2.01785 13.2082 1.34926C12.2691 0.680672 11.1451 0.321387 9.99239 0.321387C8.83967 0.321387 7.71562 0.680672 6.77662 1.34926C5.83761 2.01785 5.13034 2.96248 4.7532 4.05176C4.37606 5.14103 4.34782 6.32077 4.67239 7.42684C4.981 8.47853 5.594 9.41389 6.4323 10.116C4.95662 10.7391 3.66879 11.7381 2.69806 13.0147C1.69315 14.3363 1.06572 15.9058 0.882646 17.5559L0.882635 17.556C0.868092 17.6882 0.879732 17.822 0.916892 17.9497C0.954051 18.0774 1.016 18.1965 1.09921 18.3003C1.26725 18.5099 1.51166 18.6441 1.77868 18.6735C2.04569 18.7029 2.31344 18.625 2.52302 18.4569C2.73254 18.2889 2.86676 18.0446 2.89618 17.7777C3.09269 16.0284 3.92681 14.4128 5.23919 13.2395C6.55157 12.0663 8.2502 11.4178 10.0105 11.4178C11.7709 11.4178 13.4695 12.0663 14.7819 13.2395C16.0942 14.4127 16.9283 16.0283 17.1249 17.7775C17.1523 18.0251 17.2704 18.2537 17.4564 18.4193C17.6424 18.5848 17.883 18.6755 18.1319 18.6741H18.1316V18.5741L18.1323 18.6741L13.5529 10.1156ZM13.5529 10.1156C13.524 10.1399 13.4948 10.1639 13.4653 10.1875M13.5529 10.1156L13.4653 10.1875M13.4653 10.1875C13.4299 10.173 13.3944 10.1586 13.3588 10.1445L13.4653 10.1875ZM9.99239 9.40024C9.29431 9.40024 8.61191 9.19324 8.03148 8.80541C7.45104 8.41757 6.99865 7.86633 6.73151 7.22139C6.46437 6.57645 6.39447 5.86678 6.53066 5.18211C6.66685 4.49745 7.003 3.86854 7.49662 3.37493C7.99024 2.88131 8.61914 2.54515 9.30381 2.40897C9.98847 2.27278 10.6981 2.34267 11.3431 2.60982C11.988 2.87696 12.5393 3.32935 12.9271 3.90978C13.3149 4.49021 13.5219 5.17262 13.5219 5.87069C13.5219 6.80679 13.1501 7.70454 12.4882 8.36646C11.8262 9.02838 10.9285 9.40024 9.99239 9.40024Z" fill="#858585" stroke="#858585" stroke-width="0.2"/>
</svg>
